<?xml version="1.0" encoding="UTF-8"?>
<!DOCTYPE svg PUBLIC "-//W3C//DTD SVG 1.0//EN" "http://www.w3.org/TR/2001/REC-SVG-20010904/DTD/svg10.dtd">
<!-- Creator: CorelDRAW X8 -->
<svg xmlns="http://www.w3.org/2000/svg" xml:space="preserve" width="84.6666mm" height="25.3998mm" version="1.0" style="shape-rendering:geometricPrecision; text-rendering:geometricPrecision; image-rendering:optimizeQuality; fill-rule:evenodd; clip-rule:evenodd"
viewBox="0 0 8467 2540"
 xmlns:xlink="http://www.w3.org/1999/xlink">
 <g id="Capa_x0020_1">
  <metadata id="CorelCorpID_0Corel-Layer"/>
  <g id="_948822368">
   <path fill="#EF6176" class="fil0" d="M1502 1513l77 -2 3 80c-95,7 -88,18 -80,-78zm-104 -869l660 0c271,33 494,153 523,534 20,256 -33,274 -85,484l186 215c-85,0 -256,9 -331,-4 -96,-18 -10,-38 -117,-13 -292,69 -327,-4 -752,33 0,-122 -22,-100 100,-100l0 -83c-144,0 -200,45 -200,-100l-83 0 0 150c48,115 100,-82 100,133 -153,1 -61,-1 -113,-72 -48,-65 -41,-9 -122,-12 -107,-5 -34,-30 -84,-80 -51,-53 -71,27 -81,-86 38,-141 100,60 100,-133l100 0c0,108 -12,84 100,83 0,-101 -18,-83 83,-83l0 -183 -183 0c0,222 100,-63 100,183 -209,0 -22,-36 -134,-83l-116 0c-110,46 74,84 -134,83 0,-268 84,109 84,-283 -109,0 -84,-15 -84,100l-100 0c1,-123 23,-100 -100,-100l0 -6c1,-119 11,-70 61,-100 103,-61 -15,-20 80,-87l131 -135c22,-30 3,-11 17,-33 42,-65 83,-39 179,-39 94,-157 -44,-81 191,-82l24 -101zm301 699c-28,-150 30,-400 203,-429 224,-39 341,62 347,279 6,170 7,407 -202,433 -242,29 -309,-69 -348,-283zm-197 -113l77 -3 3 80c-95,8 -88,18 -80,-77zm-384 0l79 -3 1 80c-95,8 -87,18 -80,-77zm-103 -20c1,-101 19,-83 -83,-83l0 -100c102,0 84,18 83,-83 172,-1 18,20 117,102 165,-91 -37,-103 167,-102 0,186 -54,6 -100,116 3,139 21,-17 100,150 -211,1 -14,-47 -139,-81 -150,-42 46,81 -145,81zm-200 -33c23,-54 95,-57 95,0 0,45 22,32 -40,32 -100,-1 -34,-11 -55,-32zm495 -57l-8 -82 180 8 0 64 -172 10zm-11 -276c122,0 100,22 100,-100l83 0c0,122 -22,100 100,100l0 83 -283 0 0 -83zm486 -98l78 -2 2 80c-95,7 -88,18 -80,-78z"/>
   <path fill="#EF6176" class="fil0" d="M4743 1191c-38,-82 69,-81 -211,-81l0 767 217 0c0,-140 -14,-293 6,-428 30,-208 85,-165 224,-142l52 -146c69,130 137,348 192,492 27,71 87,197 70,266 -32,127 -144,95 -225,94l18 163c422,1 344,-53 479,-399 39,-100 227,-593 234,-667l-200 0 -175 514 -185 -516c-223,2 -372,-73 -496,83z"/>
   <path fill="#EF6176" class="fil0" d="M7082 1710l0 -250c180,0 240,-28 383,67 0,253 -149,183 -383,183zm0 -417l0 -216c106,0 345,-35 352,101 9,162 -233,115 -352,115zm-200 584l516 0c137,0 239,-82 273,-213 43,-172 -57,-219 -152,-300 273,-276 0,-454 -187,-454l-450 0 0 967z"/>
   <path fill="#EF6176" class="fil0" d="M6115 1710l0 -633c260,0 398,28 402,316 4,334 -125,317 -402,317zm-200 167c485,0 800,75 800,-517 0,-519 -430,-450 -800,-450l0 967z"/>
   <path fill="#EF6176" class="fil0" d="M4182 1427l-283 0c0,-235 278,-230 283,0zm200 233l-185 -33c-63,50 -65,130 -172,108 -98,-20 -126,-76 -126,-175l490 -1c45,-161 -74,-409 -250,-456 -211,-56 -396,55 -447,267 -143,594 596,690 690,290z"/>
   <path fill="#EF6176" class="fil0" d="M2849 1643c0,289 302,326 488,136l18 100 177 -2 0 -767 -200 0c0,283 57,617 -167,617 -101,0 -116,-77 -116,-167l0 -450 -200 0 0 533z"/>
  </g>
 </g>
</svg>
